<?xml version="1.0" standalone="no"?>
<!DOCTYPE svg PUBLIC "-//W3C//DTD SVG 20010904//EN"
 "http://www.w3.org/TR/2001/REC-SVG-20010904/DTD/svg10.dtd">
<svg version="1.0" xmlns="http://www.w3.org/2000/svg"
 width="4500.000000pt" height="4500.000000pt" viewBox="0 0 4500.000000 4500.000000"
 preserveAspectRatio="xMidYMid meet">

<g transform="translate(0.000000,4500.000000) scale(0.100000,-0.100000)"
fill="#000000" stroke="none">
<path d="M31500 28670 c-110 -16 -439 -100 -477 -122 -85 -49 -284 -201 -316
-241 -75 -92 -199 -271 -209 -298 -11 -33 -42 -50 -163 -93 -87 -31 -280 -71
-443 -91 -68 -8 -126 -17 -130 -19 -4 -2 -81 -11 -172 -20 -91 -9 -192 -21
-225 -27 -63 -10 -551 -45 -860 -60 -297 -15 -3400 -23 -3850 -10 -313 9 -695
33 -700 44 -1 1 -7 26 -13 54 -9 40 -32 81 -101 175 -83 115 -97 129 -207 208
-131 94 -134 96 -219 140 -74 38 -490 140 -573 140 -72 0 -501 -102 -569 -135
-29 -14 -107 -64 -174 -112 -113 -83 -126 -96 -212 -213 -110 -151 -124 -187
-217 -530 -66 -246 -85 -314 -184 -665 -62 -220 -143 -482 -222 -721 l-67
-202 -66 44 c-60 40 -135 85 -260 155 -25 15 -125 66 -221 113 -96 48 -186 93
-200 100 -14 8 -43 19 -65 26 -22 7 -49 19 -60 25 -11 7 -38 18 -60 25 -22 7
-44 16 -50 20 -5 5 -37 16 -70 25 -33 10 -64 21 -70 25 -9 6 -64 25 -255 85
-80 26 -204 57 -470 120 -359 85 -400 94 -470 105 -36 6 -95 17 -131 25 -37 8
-104 17 -150 21 -77 5 -101 2 -296 -45 l-212 -50 -108 -78 c-99 -71 -205 -158
-708 -583 -94 -80 -257 -217 -361 -305 -104 -87 -247 -209 -319 -270 -175
-149 -554 -463 -747 -617 -248 -199 -1123 -878 -1132 -878 -2 0 -27 39 -56 88
-125 205 -379 559 -543 757 -132 158 -391 416 -547 545 -158 131 -390 304
-551 410 -68 46 -136 91 -150 100 -39 27 -275 158 -359 200 -95 48 -208 100
-214 100 -3 0 -29 11 -58 24 -29 13 -71 29 -93 36 -22 7 -44 16 -50 20 -9 7
-278 97 -420 140 -87 27 -596 146 -766 180 -132 26 -215 38 -494 72 -118 14
-775 14 -885 0 -331 -43 -353 -47 -730 -134 -237 -55 -372 -89 -470 -120 -116
-36 -354 -120 -408 -144 -29 -13 -55 -24 -59 -24 -28 0 -500 -239 -605 -306
-21 -13 -55 -34 -75 -47 -188 -117 -560 -384 -751 -540 -151 -124 -419 -381
-578 -554 -259 -283 -693 -880 -849 -1168 -21 -38 -49 -87 -62 -108 -26 -42
-233 -451 -233 -461 0 -4 -25 -64 -56 -134 -153 -343 -267 -711 -403 -1292
-73 -314 -103 -484 -136 -750 -49 -406 -56 -527 -56 -975 0 -352 4 -452 21
-620 35 -338 69 -583 110 -775 83 -395 237 -961 296 -1095 7 -16 38 -93 68
-170 51 -132 95 -230 187 -420 21 -44 47 -93 56 -110 10 -16 38 -65 62 -109
112 -204 416 -639 616 -882 127 -154 447 -472 600 -597 133 -108 471 -354 592
-431 137 -87 147 -93 238 -143 92 -50 244 -126 325 -161 99 -44 186 -80 210
-87 14 -4 30 -11 35 -15 6 -5 37 -16 70 -25 33 -10 65 -21 70 -25 38 -29 796
-220 1060 -266 200 -35 251 -42 478 -59 310 -25 491 -29 649 -16 281 24 454
42 508 56 30 7 75 16 100 19 97 14 525 119 721 176 112 33 328 110 394 140 11
5 52 23 90 40 276 124 519 270 880 529 337 242 516 390 759 629 142 141 350
365 410 445 16 20 32 37 35 37 4 0 71 -89 149 -199 194 -272 315 -417 516
-616 174 -173 310 -282 616 -497 108 -75 379 -238 396 -238 2 0 28 -12 57 -26
28 -14 93 -41 142 -60 50 -19 99 -39 110 -45 53 -25 231 -73 555 -148 483
-112 782 -127 1260 -66 161 21 563 108 795 172 115 31 397 123 410 133 6 4 28
13 50 20 22 7 64 23 93 36 29 13 55 24 58 24 28 0 471 227 597 306 20 13 54
35 75 48 230 144 645 440 877 625 487 390 1019 915 1430 1412 l79 97 26 -62
c76 -177 266 -515 408 -720 410 -598 700 -909 1172 -1262 159 -118 311 -226
360 -254 19 -12 55 -34 80 -50 180 -116 565 -308 690 -345 14 -4 30 -11 35
-15 14 -10 230 -83 372 -124 65 -19 217 -57 338 -85 121 -28 249 -58 285 -67
109 -27 337 -63 495 -79 83 -9 179 -21 214 -27 89 -15 824 -15 911 0 36 7 126
19 200 27 74 8 194 26 265 39 165 31 689 156 820 196 55 17 123 37 151 45 29
8 65 22 80 30 16 8 32 15 37 15 10 0 181 66 234 91 24 10 45 19 47 19 5 0 212
95 236 109 8 4 44 23 80 41 106 54 353 192 379 212 13 10 29 18 36 18 7 0 35
-30 62 -68 39 -53 76 -86 172 -155 l123 -88 247 -58 c135 -32 287 -64 336 -70
50 -7 111 -17 136 -22 55 -12 265 -42 479 -69 85 -11 166 -22 180 -25 42 -9
461 -54 690 -74 118 -11 260 -24 315 -30 95 -10 251 -17 873 -41 338 -14 969
10 1222 45 58 8 157 21 220 29 139 18 354 56 510 90 242 53 594 138 710 173
161 47 435 136 445 143 6 4 35 15 65 25 30 10 60 21 65 25 6 4 21 11 35 15 14
4 49 18 78 31 29 13 55 24 58 24 14 0 385 182 486 239 82 45 182 104 208 121
14 9 54 36 90 60 669 442 1136 866 1546 1400 114 148 357 488 426 595 135 210
325 538 414 715 77 154 163 342 205 448 27 67 53 130 59 140 22 38 145 392
201 577 60 197 218 843 258 1055 30 160 58 355 81 565 11 105 22 206 25 225
14 93 24 618 15 832 -14 366 -57 649 -169 1117 -67 277 -161 582 -225 724 -39
88 -135 280 -159 318 -12 20 -37 63 -56 94 -36 60 -188 276 -305 430 -151 200
-320 372 -541 549 -103 83 -364 272 -457 331 -65 40 -337 195 -344 195 -2 0
-32 13 -66 29 -111 51 -172 78 -198 86 -14 4 -29 11 -35 15 -10 7 -268 95
-405 138 -163 52 -813 201 -986 227 -56 8 -108 17 -115 20 -14 5 -292 38 -469
55 -386 37 -1293 37 -1680 0 -320 -31 -492 -49 -507 -54 -10 -3 -82 -14 -161
-26 -79 -11 -147 -22 -151 -24 -4 -3 -52 -12 -107 -21 -155 -24 -749 -165
-964 -228 -254 -74 -496 -160 -647 -228 -45 -20 -63 -24 -63 -11 0 4 16 63 35
132 20 69 69 247 110 395 67 242 142 503 289 1000 26 88 57 176 68 195 11 19
45 137 74 262 50 211 53 233 45 290 -13 84 -98 441 -115 483 -18 43 -185 271
-228 311 -45 43 -245 186 -288 208 -48 23 -429 112 -510 119 -36 3 -90 1 -120
-3z m210 -976 c58 -32 88 -76 101 -152 10 -55 9 -65 -9 -94 -30 -48 -54 -117
-127 -368 -361 -1236 -600 -2144 -646 -2451 -12 -79 -16 -88 -63 -145 -57 -68
-73 -74 -205 -74 -78 0 -135 23 -174 69 -51 61 -57 131 -32 386 8 83 12 167 8
188 -18 119 -273 203 -818 272 -397 49 -849 72 -1730 85 -657 10 -733 9 -885
-12 -307 -42 -656 -212 -960 -466 -697 -584 -1207 -1609 -1454 -2922 -139
-739 -168 -1779 -75 -2650 90 -843 307 -1621 625 -2245 375 -737 907 -1235
1512 -1415 213 -63 310 -75 607 -75 236 1 286 3 395 23 307 55 553 153 800
317 709 471 1144 1253 1282 2301 30 228 32 712 5 934 -114 929 -480 1504
-1057 1662 -78 21 -105 23 -315 22 -216 0 -236 -2 -328 -27 -209 -56 -321
-133 -427 -294 -81 -123 -124 -226 -146 -355 -43 -245 37 -539 187 -689 69
-69 129 -94 251 -104 168 -14 243 -91 243 -250 0 -70 -4 -87 -30 -133 -42 -77
-136 -160 -241 -214 -240 -124 -494 -187 -832 -209 -447 -28 -769 62 -1046
292 -274 228 -424 522 -451 884 -26 342 134 671 471 968 356 314 833 548 1429
702 449 116 820 163 1355 172 463 8 790 -24 1158 -114 79 -19 145 -33 147 -31
1 2 15 62 29 133 156 759 498 1415 1001 1920 430 432 953 756 1605 995 792
291 1829 439 2910 417 702 -15 1219 -81 1740 -224 656 -179 1177 -466 1580
-872 525 -527 812 -1216 891 -2136 14 -166 14 -681 -1 -895 -63 -945 -312
-1852 -735 -2685 -507 -997 -1136 -1739 -1921 -2263 -396 -264 -889 -500
-1344 -642 -659 -205 -1252 -294 -2051 -307 -792 -13 -1698 56 -2725 207 -326
48 -507 79 -514 87 -9 10 -50 146 -50 166 0 9 116 161 257 339 141 178 330
416 420 529 89 114 169 212 177 218 11 10 23 8 53 -7 138 -71 486 -179 746
-232 l58 -12 86 73 c209 178 360 403 447 669 19 58 50 184 70 279 101 482 160
967 286 2336 33 363 71 775 85 915 14 140 50 525 80 855 30 330 69 740 85 910
16 171 55 582 85 915 31 333 59 639 64 680 5 41 7 78 5 81 -7 12 -363 -58
-590 -116 -599 -155 -1056 -389 -1373 -707 -274 -274 -430 -585 -498 -993 -23
-139 -25 -541 -4 -680 20 -136 57 -314 86 -411 l25 -87 128 -131 c272 -278
428 -541 516 -869 85 -315 81 -732 -10 -1147 -155 -699 -529 -1426 -1070
-2075 -137 -164 -531 -560 -689 -691 -530 -440 -1132 -789 -1720 -999 -647
-230 -1366 -308 -2130 -230 -946 97 -1753 440 -2425 1031 -418 368 -796 888
-1049 1444 -262 577 -417 1170 -486 1859 -7 79 -16 145 -18 147 -2 2 -27 -49
-56 -114 -274 -604 -741 -1293 -1325 -1952 -153 -172 -539 -563 -723 -732
-782 -715 -1562 -1184 -2318 -1389 -518 -142 -1048 -163 -1505 -62 -1058 234
-1931 1108 -2341 2343 -62 187 -149 512 -165 618 -4 23 -10 44 -14 47 -4 2
-35 -55 -70 -128 -318 -664 -739 -1268 -1220 -1747 -258 -258 -492 -449 -800
-655 -573 -382 -1096 -580 -1750 -662 -205 -25 -754 -26 -990 0 -1449 157
-2594 878 -3315 2088 -400 671 -637 1420 -720 2284 -32 327 -35 955 -6 1295
35 411 118 879 218 1225 177 620 473 1254 831 1780 452 667 1053 1225 1719
1598 762 428 1525 612 2379 577 1370 -58 2607 -679 3376 -1696 301 -398 568
-913 714 -1379 21 -66 39 -122 40 -123 10 -14 733 518 1284 943 969 748 1315
1031 2798 2292 73 62 139 113 148 113 52 0 375 -59 554 -101 412 -97 743 -216
1115 -399 507 -249 928 -550 1320 -944 337 -338 595 -702 801 -1131 167 -347
304 -766 379 -1155 14 -74 27 -136 29 -138 2 -1 7 9 10 24 4 15 48 122 97 237
257 600 610 1189 1024 1707 498 626 940 1060 1445 1423 24 17 22 17 -100 12
-1291 -61 -2257 -206 -2583 -388 -82 -46 -198 -168 -259 -272 -55 -94 -131
-278 -190 -462 l-43 -133 -81 0 c-197 0 -307 84 -370 286 l-25 81 40 66 c22
36 51 87 64 114 138 275 476 1314 722 2223 53 195 110 396 126 447 28 86 32
93 72 116 97 57 221 55 325 -6 67 -40 66 -33 34 -216 -28 -159 -29 -244 -2
-271 36 -36 304 -106 559 -145 254 -38 515 -59 951 -75 390 -15 3743 -8 4010
9 496 30 664 43 885 66 776 83 1245 189 1559 353 146 76 264 211 335 383 55
133 137 185 271 172 30 -2 75 -16 100 -29z m-2875 -3253 c143 -6 305 -15 360
-20 55 -6 174 -16 265 -22 91 -6 166 -13 168 -14 2 -2 18 -64 37 -137 18 -74
38 -145 45 -159 7 -13 59 -87 114 -163 90 -125 111 -146 196 -209 52 -38 97
-71 99 -73 2 -2 -23 -41 -55 -86 -147 -207 -226 -341 -334 -563 -32 -66 -73
-156 -90 -200 -17 -44 -37 -93 -44 -110 -8 -16 -22 -52 -31 -78 l-18 -49 -56
6 c-226 22 -465 29 -670 17 -347 -19 -513 -31 -561 -41 -25 -5 -103 -16 -175
-25 -71 -9 -155 -22 -185 -30 -30 -7 -75 -16 -100 -20 -78 -11 -535 -120 -735
-175 -100 -27 -399 -128 -434 -146 -14 -8 -30 -14 -34 -14 -16 0 -151 -61
-287 -129 -199 -100 -447 -261 -654 -423 -27 -21 -51 -37 -53 -34 -13 13 64
484 108 661 31 120 203 650 218 670 5 5 30 64 56 130 97 246 309 641 440 820
124 169 340 382 475 471 64 41 217 121 290 150 29 12 143 13 710 9 371 -2 792
-9 935 -14z m3740 -1898 c-3 -32 -24 -249 -46 -483 -22 -234 -52 -552 -66
-706 l-27 -282 -73 102 c-40 55 -107 140 -149 188 l-75 87 -11 93 c-6 53 -8
179 -5 293 5 197 6 201 37 279 59 142 118 235 209 327 76 76 182 158 204 159
4 0 5 -26 2 -57z m-3670 -4322 c-22 -167 -55 -286 -135 -491 -88 -224 -171
-387 -278 -550 -61 -92 -249 -288 -347 -361 -53 -40 -236 -149 -250 -149 -3 0
-33 -13 -67 -29 -131 -61 -158 -65 -449 -66 -181 0 -270 4 -280 11 -8 6 -38
19 -68 29 -55 18 -211 96 -283 141 -68 43 -232 199 -330 313 -93 109 -194 267
-297 466 -68 130 -164 350 -148 337 6 -5 37 -17 67 -27 30 -10 60 -21 66 -26
11 -9 136 -40 464 -115 180 -42 209 -46 370 -51 285 -8 503 18 860 102 210 50
399 102 415 115 6 4 28 13 50 20 65 20 225 103 300 155 166 116 255 187 300
239 27 31 50 54 52 53 2 -2 -4 -54 -12 -116z"/>
<path d="M9548 24980 c-208 -18 -467 -84 -649 -166 -506 -229 -953 -685 -1277
-1305 -446 -849 -671 -2087 -623 -3423 32 -876 124 -1468 331 -2126 294 -933
745 -1605 1350 -2012 139 -93 393 -216 561 -272 494 -163 1031 -144 1449 51
405 188 791 564 1081 1050 406 682 649 1547 746 2663 23 260 26 1209 5 1465
-78 961 -270 1736 -599 2425 -439 919 -1131 1520 -1883 1635 -123 19 -357 26
-492 15z m403 -960 c58 -11 90 -24 248 -103 142 -71 193 -107 310 -215 223
-206 359 -397 539 -757 115 -230 201 -444 290 -720 127 -395 186 -741 234
-1370 20 -261 17 -1103 -5 -1370 -21 -251 -60 -591 -87 -747 -26 -152 -77
-394 -95 -443 -7 -22 -37 -113 -65 -203 -60 -192 -173 -461 -277 -662 -161
-309 -238 -415 -447 -618 -125 -120 -178 -159 -296 -214 -41 -19 -93 -44 -115
-54 -36 -17 -65 -19 -280 -19 -264 0 -231 -5 -420 73 -72 30 -267 132 -321
168 -127 84 -370 340 -476 501 -98 149 -241 419 -298 564 -10 26 -28 66 -39
90 -59 128 -198 539 -240 709 -113 462 -187 1419 -162 2102 24 657 112 1296
220 1609 115 333 134 383 185 490 19 41 57 122 84 181 28 60 59 120 70 135 10
16 36 60 57 98 86 159 217 320 385 473 116 105 134 118 271 190 130 68 224
105 289 113 91 10 384 10 441 -1z"/>
<path d="M17287 22083 c-4 -2356 0 -2225 -57 -2504 -53 -261 -153 -517 -290
-745 -119 -196 -445 -643 -780 -1069 -95 -121 -186 -237 -202 -257 l-29 -37
63 -73 c176 -205 447 -463 633 -603 377 -283 747 -436 1118 -461 l97 -7 0
3962 0 3961 -275 0 -274 0 -4 -2167z"/>
<path d="M18170 23282 l0 -929 98 -94 c217 -210 457 -386 681 -499 397 -199
786 -224 1161 -74 258 103 564 356 775 640 l45 62 -51 88 c-446 773 -1208
1314 -2292 1628 -127 37 -396 106 -413 106 -2 0 -4 -418 -4 -928z m1015 -445
c166 -91 342 -213 400 -277 l20 -22 -50 7 c-74 11 -303 125 -397 198 -35 26
-38 33 -38 79 0 27 3 48 8 46 4 -2 30 -15 57 -31z"/>
<path d="M34810 24104 c0 -5 -18 -196 -40 -424 -22 -228 -65 -680 -95 -1005
-31 -324 -62 -655 -70 -735 -8 -80 -49 -503 -90 -940 -41 -437 -88 -934 -104
-1105 -17 -170 -55 -582 -86 -915 -101 -1103 -126 -1283 -224 -1625 -136 -473
-321 -739 -774 -1117 -64 -54 -128 -105 -142 -114 -14 -9 -25 -19 -25 -23 0
-12 503 -79 875 -116 373 -37 679 -55 1080 -62 691 -12 1112 46 1521 207 479
189 906 645 1352 1445 284 508 498 1092 607 1654 157 814 164 1655 19 2369
-67 331 -150 576 -289 857 -200 404 -451 709 -790 960 -501 371 -1102 579
-1920 666 -205 22 -805 39 -805 23z m1060 -1009 c41 -7 109 -19 150 -26 74
-11 343 -96 397 -124 15 -8 31 -15 35 -15 22 0 299 -136 383 -188 28 -17 66
-40 85 -51 54 -29 219 -180 314 -287 150 -168 321 -499 420 -812 80 -255 128
-850 106 -1335 -32 -725 -120 -1150 -351 -1695 -78 -182 -242 -516 -295 -600
-19 -29 -34 -54 -34 -56 0 -7 -82 -143 -154 -256 -100 -157 -175 -250 -336
-411 -139 -139 -149 -147 -252 -197 -58 -29 -109 -52 -113 -52 -4 0 -21 -7
-38 -15 -75 -34 -172 -56 -317 -70 -85 -8 -196 -19 -247 -25 -50 -5 -225 -10
-388 -10 -270 0 -297 1 -291 16 22 57 189 779 210 909 26 156 45 328 81 740
19 220 42 459 50 530 8 72 33 333 55 580 50 558 98 1063 105 1101 3 16 32 328
65 694 33 366 74 793 90 950 16 157 36 366 45 465 8 99 18 199 21 223 l5 43
62 -6 c34 -3 96 -12 137 -20z"/>
<path d="M15978 23327 c-639 -822 -998 -1725 -1068 -2682 -13 -179 -13 -536 0
-690 64 -759 302 -1429 738 -2077 39 -58 76 -109 81 -113 23 -14 175 342 235
550 40 140 69 277 99 465 21 134 21 145 24 2175 2 1122 2 2146 1 2275 l-3 235
-107 -138z"/>
<path d="M21030 22024 c-130 -132 -336 -291 -510 -394 -354 -210 -685 -293
-1072 -269 -391 24 -804 182 -1183 454 -42 31 -79 54 -81 52 -2 -2 -3 -525 -2
-1161 l3 -1158 65 48 c678 500 1333 673 1906 504 321 -95 638 -294 959 -602
l134 -129 22 73 c73 245 148 583 173 783 55 433 6 915 -139 1364 -58 178 -193
491 -213 491 -4 0 -32 -25 -62 -56z"/>
<path d="M19475 19886 c-380 -65 -781 -295 -1178 -676 l-127 -122 0 -1380 0
-1381 126 7 c1036 58 1881 741 2591 2096 74 140 233 477 233 492 0 17 -144
213 -241 328 -280 332 -561 525 -889 612 -100 26 -136 30 -275 34 -105 2 -187
-1 -240 -10z m300 -952 c56 -19 161 -78 197 -112 l27 -25 -36 -71 c-76 -153
-266 -459 -367 -591 -89 -117 -327 -371 -428 -457 l-48 -40 0 519 1 518 50 40
c98 78 341 210 414 225 66 13 141 11 190 -6z"/>
</g>
</svg>
